<svg xmlns="http://www.w3.org/2000/svg" viewBox="0 0 185.58 125.03" fill="none">
  <title>Mada Privilèges</title>
  <path fill="#083342" d="M139.66 100L113.37 100C113.07 100 112.8 99.85 112.69 99.62L85.87 46.23C85.57 45.65 84.57 45.77 84.46 46.39L79.85 74.16L78.89 79.93L75.65 99.46C75.59 99.77 75.28 100 74.91 100L65.3 100C65.01 100 64.74 99.85 64.62 99.62L55.65 81.75L52.32 75.12L37.81 46.23C37.5 45.65 36.5 45.77 36.4 46.39L27.58 99.46C27.53 99.77 27.21 100 26.85 100L0.8 100C0.35 100 0 99.66 0.06 99.28L6.6 61.57L6.6 61.55L17.2 0.54C17.26 0.23 17.57 0 17.94 0L42.46 0C42.75 0 43.02 0.15 43.14 0.38L59.56 33.39L65.27 0.54C65.29 0.45 65.32 0.38 65.38 0.31L65.38 0.3C65.51 0.12 65.74 0 66.01 0L90.53 0C90.82 0 91.09 0.15 91.21 0.38L140.34 99.13C140.55 99.54 140.19 100 139.66 100M179.83 16.02C176.01 10.97 170.62 7.08 163.64 4.21C156.61 1.42 148.43 0 139 0L99.51 0C98.98 0 98.62 0.46 98.83 0.87L108.83 21.06C108.95 21.29 109.22 21.44 109.52 21.44L137.52 21.44C141.21 21.44 144.43 21.97 147.08 23.07C149.79 24.18 151.79 25.6 153.14 27.37C154.5 29.17 155.13 31.2 155.13 33.62C155.13 35.9 154.49 37.94 153.14 39.82C151.78 41.67 149.79 43.09 147.08 44.08C144.43 45.07 141.21 45.61 137.52 45.61L122.3 45.86C121.78 45.87 121.43 46.33 121.64 46.74L131.62 66.77C131.73 67 132 67.16 132.3 67.16L139.01 67.16C148.44 67.16 156.61 65.79 163.65 63C170.62 60.26 176.02 56.32 179.84 51.22C183.63 46.18 185.58 40.25 185.58 33.62C185.58 26.99 183.63 21.06 179.84 16.02Z"/>
  <path fill="#083342" d="M0.34 124.69L3.06 109.08L6.41 109.08L9.96 119.51L9.71 119.51L13.26 109.08L16.58 109.08L19.31 124.69L15.62 124.69L14.61 117.88C14.49 117 14.37 116.11 14.26 115.22C14.14 114.34 14.05 113.45 13.97 112.57L15 112.57C14.77 113.48 14.55 114.37 14.34 115.22C14.12 116.08 13.87 116.94 13.58 117.81L11.29 124.55L8.38 124.55L6.07 117.81C5.78 116.94 5.52 116.08 5.3 115.22C5.08 114.37 4.86 113.48 4.65 112.57L5.7 112.57C5.61 113.45 5.51 114.34 5.4 115.22C5.29 116.11 5.17 117 5.04 117.88L4.03 124.69ZM23.43 118.62L30.4 118.62L30.4 122.05L23.43 122.05ZM19.86 124.69L25.38 109.08L29.3 109.08L34.43 124.69L30.69 124.69L26.66 111.63L28.01 111.63L23.57 124.69ZM39.47 122.62L37.93 121.09L41.05 121.09C41.94 121.09 42.7 120.95 43.35 120.67C44 120.38 44.5 119.93 44.86 119.3C45.22 118.68 45.4 117.87 45.4 116.87C45.4 115.9 45.23 115.1 44.87 114.48C44.52 113.86 44.02 113.41 43.37 113.12C42.73 112.83 41.96 112.68 41.07 112.68L37.77 112.68L39.47 111.65ZM35.76 124.69L35.76 109.08L41.32 109.08C42.97 109.08 44.39 109.39 45.56 110.01C46.74 110.63 47.64 111.52 48.27 112.68C48.89 113.84 49.21 115.24 49.21 116.87C49.21 118.52 48.89 119.93 48.25 121.09C47.62 122.25 46.72 123.14 45.54 123.76C44.36 124.38 42.95 124.69 41.3 124.69ZM53.35 118.62L60.32 118.62L60.32 122.05L53.35 122.05ZM49.78 124.69L55.3 109.08L59.22 109.08L64.35 124.69L60.61 124.69L56.58 111.63L57.93 111.63L53.49 124.69Z"/>
  <path fill="#083342" d="M68.33 117.49L71.56 117.49C72.57 117.49 73.38 117.22 73.99 116.67C74.6 116.12 74.91 115.35 74.91 114.38C74.91 113.34 74.61 112.55 74.01 112.03C73.4 111.5 72.6 111.24 71.59 111.24L68.33 111.24L68.75 110.71L68.75 124.69L66.46 124.69L66.46 109.08L71.98 109.08C73.05 109.08 73.98 109.32 74.77 109.79C75.57 110.27 76.19 110.9 76.63 111.7C77.07 112.49 77.29 113.38 77.29 114.38C77.29 115.35 77.07 116.24 76.63 117.04C76.19 117.85 75.56 118.48 74.76 118.95C73.96 119.41 73.02 119.65 71.96 119.65L68.33 119.65ZM88.63 124.69L84.99 118.2L87.51 118.2L91.15 124.69ZM79.93 124.69L79.93 109.08L85.66 109.08C86.72 109.08 87.66 109.31 88.46 109.76C89.26 110.21 89.89 110.82 90.33 111.58C90.77 112.35 90.99 113.2 90.99 114.15C90.99 115.09 90.77 115.95 90.33 116.71C89.89 117.48 89.26 118.08 88.46 118.52C87.66 118.97 86.72 119.19 85.66 119.19L81.81 119.19L81.81 117.03L85.27 117.03C86.27 117.03 87.08 116.78 87.69 116.27C88.31 115.76 88.61 115.05 88.61 114.15C88.61 113.18 88.31 112.46 87.69 111.97C87.08 111.48 86.27 111.24 85.27 111.24L81.78 111.24L82.22 110.71L82.22 124.69ZM96.42 124.69L94.13 124.69L94.13 109.08L96.42 109.08ZM104.17 124.69L98.6 109.08L100.94 109.08L105.93 123.08L105.52 123.08L110.51 109.08L112.85 109.08L107.28 124.69ZM117.32 124.69L115.03 124.69L115.03 109.08L117.32 109.08ZM130.24 124.69L121.21 124.69L121.21 109.08L123.5 109.08L123.5 122.85L123.23 122.53L130.24 122.53ZM134.59 115.77L140.89 115.77L140.89 117.93L134.59 117.93ZM134.59 117.93M137.59 107.5L134.09 104.27L135.26 103.1L138.74 106.31ZM134.52 111.24L135.05 110.5L135.05 122.88L134.41 122.51L142.24 122.51L142.24 124.69L132.76 124.69L132.76 109.08L142.24 109.08L142.24 111.24ZM152.07 124.92C150.5 124.92 149.12 124.57 147.94 123.87C146.75 123.18 145.83 122.22 145.18 121.01C144.52 119.79 144.19 118.42 144.19 116.9C144.19 115.74 144.39 114.67 144.79 113.69C145.18 112.71 145.74 111.86 146.45 111.15C147.16 110.43 147.99 109.87 148.94 109.47C149.9 109.08 150.94 108.88 152.07 108.88C153.84 108.88 155.29 109.24 156.42 109.97C157.55 110.69 158.48 111.67 159.2 112.89L156.95 113.55C156.25 112.59 155.5 111.94 154.7 111.59C153.89 111.25 153.02 111.08 152.07 111.08C151.02 111.08 150.07 111.33 149.24 111.83C148.41 112.34 147.75 113.02 147.26 113.89C146.77 114.77 146.53 115.77 146.53 116.9C146.53 118.01 146.77 119.01 147.26 119.89C147.75 120.76 148.41 121.46 149.24 121.96C150.07 122.46 151.02 122.72 152.07 122.72C153.08 122.72 154 122.49 154.83 122.04C155.66 121.59 156.33 120.97 156.81 120.2C157.3 119.42 157.55 118.53 157.55 117.54L157.89 118.87L151.93 118.87L151.93 116.71L159.59 116.71C159.63 116.87 159.67 117.04 159.69 117.24C159.71 117.44 159.72 117.63 159.72 117.81C159.72 118.79 159.53 119.71 159.15 120.56C158.77 121.42 158.23 122.17 157.54 122.83C156.84 123.49 156.03 124 155.11 124.37C154.18 124.73 153.17 124.92 152.07 124.92M163.96 115.77L170.26 115.77L170.26 117.93L163.96 117.93ZM163.96 117.93M163.89 111.24L164.42 110.5L164.42 122.88L163.78 122.51L171.61 122.51L171.61 124.69L162.13 124.69L162.13 109.08L171.61 109.08L171.61 111.24ZM179.63 125.03C178.82 125.03 178.04 124.91 177.28 124.66C176.53 124.42 175.84 124.02 175.21 123.46C174.58 122.9 174.06 122.14 173.63 121.18L175.53 120.1C176.07 121.07 176.65 121.76 177.3 122.19C177.94 122.62 178.74 122.83 179.7 122.83C180.63 122.83 181.34 122.62 181.82 122.21C182.3 121.8 182.54 121.23 182.54 120.52C182.54 120.09 182.44 119.71 182.23 119.39C182.03 119.07 181.66 118.78 181.15 118.5C180.62 118.23 179.89 117.97 178.95 117.74C177.75 117.44 176.83 117.06 176.16 116.61C175.5 116.16 175.04 115.64 174.78 115.05C174.52 114.46 174.39 113.83 174.39 113.14C174.39 112.28 174.58 111.54 174.98 110.91C175.38 110.27 175.95 109.78 176.7 109.42C177.45 109.06 178.34 108.88 179.36 108.88C180.58 108.88 181.59 109.11 182.38 109.58C183.18 110.04 183.85 110.68 184.4 111.49L182.47 112.73C182 112.15 181.51 111.73 181 111.48C180.48 111.23 179.94 111.1 179.36 111.1C178.47 111.1 177.8 111.28 177.33 111.63C176.86 111.98 176.63 112.48 176.63 113.14C176.63 113.7 176.85 114.19 177.28 114.61C177.72 115.02 178.57 115.38 179.84 115.68C181.12 116 182.13 116.38 182.85 116.82C183.58 117.25 184.09 117.77 184.39 118.38C184.68 118.98 184.83 119.7 184.83 120.54C184.83 121.38 184.62 122.14 184.19 122.81C183.76 123.48 183.16 124.02 182.38 124.42C181.6 124.83 180.69 125.03 179.63 125.03"/>
</svg>
